<mxfile host="app.diagrams.net" modified="2024-07-30T03:30:23.949Z" agent="Mozilla/5.0 (Windows NT 10.0; Win64; x64) AppleWebKit/537.36 (KHTML, like Gecko) Chrome/126.0.0.0 Safari/537.36" etag="zM9Hvs5Q_p7CLr4jutvZ" version="24.6.5" type="github">
  <diagram name="第 1 页" id="mvP9hgw5OhRqE8Y1hkNj">
    <mxGraphModel dx="1452" dy="777" grid="1" gridSize="10" guides="1" tooltips="1" connect="1" arrows="1" fold="1" page="1" pageScale="1" pageWidth="3300" pageHeight="4681" math="0" shadow="0">
      <root>
        <mxCell id="0" />
        <mxCell id="1" parent="0" />
        <mxCell id="DPH8ut8o0tE_e3mcPr0a-14" value="" style="edgeStyle=orthogonalEdgeStyle;rounded=0;orthogonalLoop=1;jettySize=auto;html=1;" edge="1" parent="1" source="DPH8ut8o0tE_e3mcPr0a-10" target="DPH8ut8o0tE_e3mcPr0a-13">
          <mxGeometry relative="1" as="geometry" />
        </mxCell>
        <mxCell id="DPH8ut8o0tE_e3mcPr0a-29" value="NO" style="edgeLabel;html=1;align=center;verticalAlign=middle;resizable=0;points=[];strokeColor=default;strokeWidth=2;fontFamily=Helvetica;fontSize=12;fontColor=default;fillColor=default;" vertex="1" connectable="0" parent="DPH8ut8o0tE_e3mcPr0a-14">
          <mxGeometry x="-0.1965" y="-2" relative="1" as="geometry">
            <mxPoint as="offset" />
          </mxGeometry>
        </mxCell>
        <mxCell id="DPH8ut8o0tE_e3mcPr0a-38" style="edgeStyle=orthogonalEdgeStyle;rounded=0;orthogonalLoop=1;jettySize=auto;html=1;fontFamily=Helvetica;fontSize=12;fontColor=default;" edge="1" parent="1" source="DPH8ut8o0tE_e3mcPr0a-10" target="DPH8ut8o0tE_e3mcPr0a-36">
          <mxGeometry relative="1" as="geometry" />
        </mxCell>
        <mxCell id="DPH8ut8o0tE_e3mcPr0a-39" style="edgeStyle=orthogonalEdgeStyle;rounded=0;orthogonalLoop=1;jettySize=auto;html=1;entryX=0;entryY=0.5;entryDx=0;entryDy=0;fontFamily=Helvetica;fontSize=12;fontColor=default;" edge="1" parent="1" source="DPH8ut8o0tE_e3mcPr0a-10" target="DPH8ut8o0tE_e3mcPr0a-37">
          <mxGeometry relative="1" as="geometry" />
        </mxCell>
        <mxCell id="DPH8ut8o0tE_e3mcPr0a-10" value="state-&amp;gt;fold_state == FOLD_STATE_OPEN&lt;div style=&quot;font-size: 11px;&quot;&gt;是否展开&lt;/div&gt;" style="strokeWidth=2;html=1;shape=mxgraph.flowchart.decision;whiteSpace=wrap;fontSize=11;" vertex="1" parent="1">
          <mxGeometry x="540" y="370" width="250" height="80" as="geometry" />
        </mxCell>
        <mxCell id="DPH8ut8o0tE_e3mcPr0a-16" value="" style="edgeStyle=orthogonalEdgeStyle;rounded=0;orthogonalLoop=1;jettySize=auto;html=1;" edge="1" parent="1" source="DPH8ut8o0tE_e3mcPr0a-13" target="DPH8ut8o0tE_e3mcPr0a-15">
          <mxGeometry relative="1" as="geometry" />
        </mxCell>
        <mxCell id="DPH8ut8o0tE_e3mcPr0a-18" value="" style="edgeStyle=orthogonalEdgeStyle;rounded=0;orthogonalLoop=1;jettySize=auto;html=1;fontFamily=Helvetica;fontSize=12;fontColor=default;" edge="1" parent="1" source="DPH8ut8o0tE_e3mcPr0a-13" target="DPH8ut8o0tE_e3mcPr0a-17">
          <mxGeometry relative="1" as="geometry" />
        </mxCell>
        <mxCell id="DPH8ut8o0tE_e3mcPr0a-30" value="NO" style="edgeLabel;html=1;align=center;verticalAlign=middle;resizable=0;points=[];strokeColor=default;strokeWidth=2;fontFamily=Helvetica;fontSize=12;fontColor=default;fillColor=default;" vertex="1" connectable="0" parent="DPH8ut8o0tE_e3mcPr0a-18">
          <mxGeometry x="0.075" y="-1" relative="1" as="geometry">
            <mxPoint as="offset" />
          </mxGeometry>
        </mxCell>
        <mxCell id="DPH8ut8o0tE_e3mcPr0a-13" value="X_ROTATION == state-&amp;gt;fold_type&lt;div style=&quot;font-size: 11px;&quot;&gt;是否为小折叠&lt;/div&gt;" style="strokeWidth=2;html=1;shape=mxgraph.flowchart.decision;whiteSpace=wrap;fontSize=11;" vertex="1" parent="1">
          <mxGeometry x="540" y="540" width="250" height="80" as="geometry" />
        </mxCell>
        <mxCell id="DPH8ut8o0tE_e3mcPr0a-20" value="" style="edgeStyle=orthogonalEdgeStyle;rounded=0;orthogonalLoop=1;jettySize=auto;html=1;fontFamily=Helvetica;fontSize=12;fontColor=default;" edge="1" parent="1" source="DPH8ut8o0tE_e3mcPr0a-15" target="DPH8ut8o0tE_e3mcPr0a-19">
          <mxGeometry relative="1" as="geometry" />
        </mxCell>
        <mxCell id="DPH8ut8o0tE_e3mcPr0a-41" value="" style="edgeStyle=orthogonalEdgeStyle;rounded=0;orthogonalLoop=1;jettySize=auto;html=1;fontFamily=Helvetica;fontSize=12;fontColor=default;" edge="1" parent="1" source="DPH8ut8o0tE_e3mcPr0a-15" target="DPH8ut8o0tE_e3mcPr0a-40">
          <mxGeometry relative="1" as="geometry" />
        </mxCell>
        <mxCell id="DPH8ut8o0tE_e3mcPr0a-42" value="NO" style="edgeLabel;html=1;align=center;verticalAlign=middle;resizable=0;points=[];strokeColor=default;strokeWidth=2;fontFamily=Helvetica;fontSize=12;fontColor=default;fillColor=default;" vertex="1" connectable="0" parent="DPH8ut8o0tE_e3mcPr0a-41">
          <mxGeometry x="-0.0829" y="-2" relative="1" as="geometry">
            <mxPoint as="offset" />
          </mxGeometry>
        </mxCell>
        <mxCell id="DPH8ut8o0tE_e3mcPr0a-15" value="&lt;div style=&quot;font-size: 10px;&quot;&gt;&lt;font style=&quot;font-size: 10px;&quot;&gt;state-&amp;gt;prox_state == PRX_NEAR_BY &amp;amp;&amp;amp;&lt;/font&gt;&lt;/div&gt;&lt;div style=&quot;font-size: 10px;&quot;&gt;&lt;font style=&quot;font-size: 10px;&quot;&gt;state-&amp;gt;micro_state == MICROSEIS_ON&lt;/font&gt;&lt;/div&gt;&lt;div style=&quot;font-size: 10px;&quot;&gt;&lt;font style=&quot;font-size: 10px;&quot;&gt;远离&amp;amp;有微动&lt;/font&gt;&lt;/div&gt;" style="strokeWidth=2;html=1;shape=mxgraph.flowchart.decision;whiteSpace=wrap;fontSize=10;" vertex="1" parent="1">
          <mxGeometry x="870" y="540" width="250" height="80" as="geometry" />
        </mxCell>
        <mxCell id="DPH8ut8o0tE_e3mcPr0a-48" value="" style="edgeStyle=orthogonalEdgeStyle;rounded=0;orthogonalLoop=1;jettySize=auto;html=1;fontFamily=Helvetica;fontSize=12;fontColor=default;" edge="1" parent="1" source="DPH8ut8o0tE_e3mcPr0a-17" target="DPH8ut8o0tE_e3mcPr0a-47">
          <mxGeometry relative="1" as="geometry" />
        </mxCell>
        <mxCell id="DPH8ut8o0tE_e3mcPr0a-17" value="&lt;div style=&quot;font-size: 10px;&quot;&gt;state-&amp;gt;prox_state == PRX_NEAR_BY &amp;amp;&amp;amp;&lt;/div&gt;&lt;div style=&quot;font-size: 10px;&quot;&gt;state-&amp;gt;gesture_state == MOTION_DOWN&lt;/div&gt;&lt;div style=&quot;font-size: 10px;&quot;&gt;远离&amp;amp;有放下动作&lt;/div&gt;" style="strokeWidth=2;html=1;shape=mxgraph.flowchart.decision;whiteSpace=wrap;fontSize=11;" vertex="1" parent="1">
          <mxGeometry x="540" y="1020" width="250" height="80" as="geometry" />
        </mxCell>
        <mxCell id="DPH8ut8o0tE_e3mcPr0a-22" value="" style="edgeStyle=orthogonalEdgeStyle;rounded=0;orthogonalLoop=1;jettySize=auto;html=1;fontFamily=Helvetica;fontSize=12;fontColor=default;" edge="1" parent="1" source="DPH8ut8o0tE_e3mcPr0a-19" target="DPH8ut8o0tE_e3mcPr0a-21">
          <mxGeometry relative="1" as="geometry" />
        </mxCell>
        <mxCell id="DPH8ut8o0tE_e3mcPr0a-25" style="edgeStyle=orthogonalEdgeStyle;rounded=0;orthogonalLoop=1;jettySize=auto;html=1;entryX=0;entryY=0.5;entryDx=0;entryDy=0;fontFamily=Helvetica;fontSize=12;fontColor=default;" edge="1" parent="1" source="DPH8ut8o0tE_e3mcPr0a-19" target="DPH8ut8o0tE_e3mcPr0a-24">
          <mxGeometry relative="1" as="geometry" />
        </mxCell>
        <mxCell id="DPH8ut8o0tE_e3mcPr0a-27" value="" style="edgeStyle=orthogonalEdgeStyle;rounded=0;orthogonalLoop=1;jettySize=auto;html=1;fontFamily=Helvetica;fontSize=12;fontColor=default;" edge="1" parent="1" source="DPH8ut8o0tE_e3mcPr0a-19" target="DPH8ut8o0tE_e3mcPr0a-26">
          <mxGeometry relative="1" as="geometry" />
        </mxCell>
        <mxCell id="DPH8ut8o0tE_e3mcPr0a-28" value="NO" style="edgeLabel;html=1;align=center;verticalAlign=middle;resizable=0;points=[];strokeColor=default;strokeWidth=2;fontFamily=Helvetica;fontSize=12;fontColor=default;fillColor=default;" vertex="1" connectable="0" parent="DPH8ut8o0tE_e3mcPr0a-27">
          <mxGeometry x="-0.0566" y="-1" relative="1" as="geometry">
            <mxPoint as="offset" />
          </mxGeometry>
        </mxCell>
        <mxCell id="DPH8ut8o0tE_e3mcPr0a-51" value="YES" style="edgeLabel;html=1;align=center;verticalAlign=middle;resizable=0;points=[];strokeColor=default;strokeWidth=2;fontFamily=Helvetica;fontSize=12;fontColor=default;fillColor=default;" vertex="1" connectable="0" parent="DPH8ut8o0tE_e3mcPr0a-27">
          <mxGeometry x="-0.0829" y="1" relative="1" as="geometry">
            <mxPoint as="offset" />
          </mxGeometry>
        </mxCell>
        <mxCell id="DPH8ut8o0tE_e3mcPr0a-19" value="&lt;div style=&quot;&quot;&gt;state-&amp;gt;need_als&lt;br&gt;&lt;/div&gt;&lt;div style=&quot;&quot;&gt;是否使用光感&lt;/div&gt;" style="strokeWidth=2;html=1;shape=mxgraph.flowchart.decision;whiteSpace=wrap;fontSize=10;" vertex="1" parent="1">
          <mxGeometry x="1200" y="540" width="250" height="80" as="geometry" />
        </mxCell>
        <mxCell id="DPH8ut8o0tE_e3mcPr0a-21" value="state-&amp;gt;pocket_state = POCKET_MODE;" style="whiteSpace=wrap;html=1;fontSize=10;strokeWidth=2;fillColor=#fff2cc;strokeColor=#d6b656;" vertex="1" parent="1">
          <mxGeometry x="1595" y="550" width="225" height="60" as="geometry" />
        </mxCell>
        <mxCell id="DPH8ut8o0tE_e3mcPr0a-24" value="need_rpt = true" style="whiteSpace=wrap;html=1;strokeColor=#b85450;strokeWidth=2;align=center;verticalAlign=middle;fontFamily=Helvetica;fontSize=12;fillColor=#f8cecc;" vertex="1" parent="1">
          <mxGeometry x="1595" y="630" width="125" height="60" as="geometry" />
        </mxCell>
        <mxCell id="DPH8ut8o0tE_e3mcPr0a-32" value="" style="edgeStyle=orthogonalEdgeStyle;rounded=0;orthogonalLoop=1;jettySize=auto;html=1;fontFamily=Helvetica;fontSize=12;fontColor=default;entryX=0;entryY=0.5;entryDx=0;entryDy=0;" edge="1" parent="1" source="DPH8ut8o0tE_e3mcPr0a-26" target="DPH8ut8o0tE_e3mcPr0a-33">
          <mxGeometry relative="1" as="geometry">
            <mxPoint x="1595.0000000000005" y="740" as="targetPoint" />
          </mxGeometry>
        </mxCell>
        <mxCell id="DPH8ut8o0tE_e3mcPr0a-35" style="edgeStyle=orthogonalEdgeStyle;rounded=0;orthogonalLoop=1;jettySize=auto;html=1;entryX=0;entryY=0.5;entryDx=0;entryDy=0;fontFamily=Helvetica;fontSize=12;fontColor=default;" edge="1" parent="1" source="DPH8ut8o0tE_e3mcPr0a-26" target="DPH8ut8o0tE_e3mcPr0a-34">
          <mxGeometry relative="1" as="geometry" />
        </mxCell>
        <mxCell id="DPH8ut8o0tE_e3mcPr0a-26" value="&lt;div style=&quot;&quot;&gt;state-&amp;gt;need_als &amp;amp;&amp;amp;&amp;nbsp;&lt;/div&gt;&lt;div style=&quot;&quot;&gt;state-&amp;gt;als_value &amp;lt; LOW_LIGHT_THRETHOLD&lt;br&gt;&lt;/div&gt;&lt;div style=&quot;&quot;&gt;使用光感&amp;amp;亮度小于阈值&lt;/div&gt;" style="strokeWidth=2;html=1;shape=mxgraph.flowchart.decision;whiteSpace=wrap;fontSize=10;" vertex="1" parent="1">
          <mxGeometry x="1200" y="700" width="250" height="80" as="geometry" />
        </mxCell>
        <mxCell id="DPH8ut8o0tE_e3mcPr0a-33" value="state-&amp;gt;pocket_state = POCKET_MODE;" style="whiteSpace=wrap;html=1;fontSize=10;strokeWidth=2;fillColor=#fff2cc;strokeColor=#d6b656;" vertex="1" parent="1">
          <mxGeometry x="1595" y="710" width="225" height="60" as="geometry" />
        </mxCell>
        <mxCell id="DPH8ut8o0tE_e3mcPr0a-34" value="need_rpt = true" style="whiteSpace=wrap;html=1;strokeColor=#b85450;strokeWidth=2;align=center;verticalAlign=middle;fontFamily=Helvetica;fontSize=12;fillColor=#f8cecc;" vertex="1" parent="1">
          <mxGeometry x="1595" y="790" width="125" height="60" as="geometry" />
        </mxCell>
        <mxCell id="DPH8ut8o0tE_e3mcPr0a-36" value="state-&amp;gt;pocket_state = state-&amp;gt;prox_state" style="whiteSpace=wrap;html=1;fontSize=10;strokeWidth=2;fillColor=#fff2cc;strokeColor=#d6b656;" vertex="1" parent="1">
          <mxGeometry x="1595" y="380" width="225" height="60" as="geometry" />
        </mxCell>
        <mxCell id="DPH8ut8o0tE_e3mcPr0a-37" value="need_rpt = true" style="whiteSpace=wrap;html=1;strokeColor=#b85450;strokeWidth=2;align=center;verticalAlign=middle;fontFamily=Helvetica;fontSize=12;fillColor=#f8cecc;labelBorderColor=none;labelBackgroundColor=none;" vertex="1" parent="1">
          <mxGeometry x="1595" y="460" width="125" height="60" as="geometry" />
        </mxCell>
        <mxCell id="DPH8ut8o0tE_e3mcPr0a-45" style="edgeStyle=orthogonalEdgeStyle;rounded=0;orthogonalLoop=1;jettySize=auto;html=1;entryX=0;entryY=0.5;entryDx=0;entryDy=0;fontFamily=Helvetica;fontSize=12;fontColor=default;" edge="1" parent="1" source="DPH8ut8o0tE_e3mcPr0a-40" target="DPH8ut8o0tE_e3mcPr0a-43">
          <mxGeometry relative="1" as="geometry" />
        </mxCell>
        <mxCell id="DPH8ut8o0tE_e3mcPr0a-46" style="edgeStyle=orthogonalEdgeStyle;rounded=0;orthogonalLoop=1;jettySize=auto;html=1;entryX=0;entryY=0.5;entryDx=0;entryDy=0;fontFamily=Helvetica;fontSize=12;fontColor=default;" edge="1" parent="1" source="DPH8ut8o0tE_e3mcPr0a-40" target="DPH8ut8o0tE_e3mcPr0a-44">
          <mxGeometry relative="1" as="geometry" />
        </mxCell>
        <mxCell id="DPH8ut8o0tE_e3mcPr0a-40" value="&lt;div style=&quot;&quot;&gt;state-&amp;gt;prox_state == PRX_FAR_AWAY&lt;br&gt;&lt;/div&gt;&lt;div style=&quot;font-size: 10px;&quot;&gt;&lt;font style=&quot;font-size: 10px;&quot;&gt;远离&lt;/font&gt;&lt;/div&gt;" style="strokeWidth=2;html=1;shape=mxgraph.flowchart.decision;whiteSpace=wrap;fontSize=10;" vertex="1" parent="1">
          <mxGeometry x="870" y="860" width="250" height="80" as="geometry" />
        </mxCell>
        <mxCell id="DPH8ut8o0tE_e3mcPr0a-43" value="state-&amp;gt;pocket_state = POCKET_MODE;" style="whiteSpace=wrap;html=1;fontSize=10;strokeWidth=2;fillColor=#fff2cc;strokeColor=#d6b656;" vertex="1" parent="1">
          <mxGeometry x="1595" y="870" width="225" height="60" as="geometry" />
        </mxCell>
        <mxCell id="DPH8ut8o0tE_e3mcPr0a-44" value="need_rpt = true" style="whiteSpace=wrap;html=1;strokeColor=#b85450;strokeWidth=2;align=center;verticalAlign=middle;fontFamily=Helvetica;fontSize=12;fillColor=#f8cecc;" vertex="1" parent="1">
          <mxGeometry x="1595" y="950" width="125" height="60" as="geometry" />
        </mxCell>
        <mxCell id="DPH8ut8o0tE_e3mcPr0a-50" value="" style="edgeStyle=orthogonalEdgeStyle;rounded=0;orthogonalLoop=1;jettySize=auto;html=1;fontFamily=Helvetica;fontSize=12;fontColor=default;" edge="1" parent="1" source="DPH8ut8o0tE_e3mcPr0a-47" target="DPH8ut8o0tE_e3mcPr0a-49">
          <mxGeometry relative="1" as="geometry" />
        </mxCell>
        <mxCell id="DPH8ut8o0tE_e3mcPr0a-47" value="&lt;div style=&quot;font-size: 10px;&quot;&gt;&lt;div style=&quot;font-size: 10px;&quot;&gt;state-&amp;gt;prox_state == PRX_NEAR_BY &amp;amp;&amp;amp;&lt;/div&gt;&lt;div style=&quot;font-size: 10px;&quot;&gt;state-&amp;gt;gesture_state == MOTION_DOWN&lt;/div&gt;&lt;div style=&quot;font-size: 10px;&quot;&gt;远离&amp;amp;放下&lt;/div&gt;&lt;/div&gt;" style="strokeWidth=2;html=1;shape=mxgraph.flowchart.decision;whiteSpace=wrap;fontSize=10;" vertex="1" parent="1">
          <mxGeometry x="870" y="1020" width="250" height="80" as="geometry" />
        </mxCell>
        <mxCell id="DPH8ut8o0tE_e3mcPr0a-53" style="edgeStyle=orthogonalEdgeStyle;rounded=0;orthogonalLoop=1;jettySize=auto;html=1;fontFamily=Helvetica;fontSize=12;fontColor=default;" edge="1" parent="1" source="DPH8ut8o0tE_e3mcPr0a-49" target="DPH8ut8o0tE_e3mcPr0a-52">
          <mxGeometry relative="1" as="geometry" />
        </mxCell>
        <mxCell id="DPH8ut8o0tE_e3mcPr0a-54" value="YES" style="edgeLabel;html=1;align=center;verticalAlign=middle;resizable=0;points=[];strokeColor=default;strokeWidth=2;fontFamily=Helvetica;fontSize=12;fontColor=default;fillColor=default;" vertex="1" connectable="0" parent="DPH8ut8o0tE_e3mcPr0a-53">
          <mxGeometry x="-0.2833" y="5" relative="1" as="geometry">
            <mxPoint as="offset" />
          </mxGeometry>
        </mxCell>
        <mxCell id="DPH8ut8o0tE_e3mcPr0a-58" style="edgeStyle=orthogonalEdgeStyle;rounded=0;orthogonalLoop=1;jettySize=auto;html=1;entryX=0;entryY=0.5;entryDx=0;entryDy=0;fontFamily=Helvetica;fontSize=12;fontColor=default;" edge="1" parent="1" source="DPH8ut8o0tE_e3mcPr0a-49" target="DPH8ut8o0tE_e3mcPr0a-57">
          <mxGeometry relative="1" as="geometry" />
        </mxCell>
        <mxCell id="DPH8ut8o0tE_e3mcPr0a-60" style="edgeStyle=orthogonalEdgeStyle;rounded=0;orthogonalLoop=1;jettySize=auto;html=1;entryX=0;entryY=0.5;entryDx=0;entryDy=0;fontFamily=Helvetica;fontSize=12;fontColor=default;" edge="1" parent="1" source="DPH8ut8o0tE_e3mcPr0a-49" target="DPH8ut8o0tE_e3mcPr0a-59">
          <mxGeometry relative="1" as="geometry" />
        </mxCell>
        <mxCell id="DPH8ut8o0tE_e3mcPr0a-49" value="&lt;div style=&quot;&quot;&gt;&lt;div style=&quot;&quot;&gt;state-&amp;gt;need_als&lt;br&gt;&lt;/div&gt;&lt;div style=&quot;&quot;&gt;是否使用光感&lt;/div&gt;&lt;/div&gt;" style="strokeWidth=2;html=1;shape=mxgraph.flowchart.decision;whiteSpace=wrap;fontSize=10;" vertex="1" parent="1">
          <mxGeometry x="1200" y="1020" width="250" height="80" as="geometry" />
        </mxCell>
        <mxCell id="DPH8ut8o0tE_e3mcPr0a-63" style="edgeStyle=orthogonalEdgeStyle;rounded=0;orthogonalLoop=1;jettySize=auto;html=1;entryX=0;entryY=0.5;entryDx=0;entryDy=0;fontFamily=Helvetica;fontSize=12;fontColor=default;" edge="1" parent="1" source="DPH8ut8o0tE_e3mcPr0a-52" target="DPH8ut8o0tE_e3mcPr0a-61">
          <mxGeometry relative="1" as="geometry" />
        </mxCell>
        <mxCell id="DPH8ut8o0tE_e3mcPr0a-64" style="edgeStyle=orthogonalEdgeStyle;rounded=0;orthogonalLoop=1;jettySize=auto;html=1;entryX=0;entryY=0.5;entryDx=0;entryDy=0;fontFamily=Helvetica;fontSize=12;fontColor=default;" edge="1" parent="1" source="DPH8ut8o0tE_e3mcPr0a-52" target="DPH8ut8o0tE_e3mcPr0a-62">
          <mxGeometry relative="1" as="geometry" />
        </mxCell>
        <mxCell id="DPH8ut8o0tE_e3mcPr0a-52" value="&lt;div style=&quot;&quot;&gt;state-&amp;gt;need_als &amp;amp;&amp;amp;&amp;nbsp;&lt;/div&gt;&lt;div style=&quot;&quot;&gt;state-&amp;gt;als_value &amp;lt; LOW_LIGHT_THRETHOLD&lt;br&gt;&lt;/div&gt;&lt;div style=&quot;&quot;&gt;使用光感&amp;amp;亮度小于阈值&lt;/div&gt;" style="strokeWidth=2;html=1;shape=mxgraph.flowchart.decision;whiteSpace=wrap;fontSize=10;" vertex="1" parent="1">
          <mxGeometry x="1200" y="1180" width="250" height="80" as="geometry" />
        </mxCell>
        <mxCell id="DPH8ut8o0tE_e3mcPr0a-57" value="state-&amp;gt;pocket_state = POCKET_MODE;" style="whiteSpace=wrap;html=1;fontSize=10;strokeWidth=2;fillColor=#fff2cc;strokeColor=#d6b656;" vertex="1" parent="1">
          <mxGeometry x="1595" y="1030" width="225" height="60" as="geometry" />
        </mxCell>
        <mxCell id="DPH8ut8o0tE_e3mcPr0a-59" value="need_rpt = true" style="whiteSpace=wrap;html=1;strokeColor=#b85450;strokeWidth=2;align=center;verticalAlign=middle;fontFamily=Helvetica;fontSize=12;fillColor=#f8cecc;" vertex="1" parent="1">
          <mxGeometry x="1595" y="1110" width="125" height="60" as="geometry" />
        </mxCell>
        <mxCell id="DPH8ut8o0tE_e3mcPr0a-61" value="state-&amp;gt;pocket_state = POCKET_MODE;" style="whiteSpace=wrap;html=1;fontSize=10;strokeWidth=2;fillColor=#fff2cc;strokeColor=#d6b656;" vertex="1" parent="1">
          <mxGeometry x="1595" y="1190" width="225" height="60" as="geometry" />
        </mxCell>
        <mxCell id="DPH8ut8o0tE_e3mcPr0a-62" value="need_rpt = true" style="whiteSpace=wrap;html=1;strokeColor=#b85450;strokeWidth=2;align=center;verticalAlign=middle;fontFamily=Helvetica;fontSize=12;fillColor=#f8cecc;" vertex="1" parent="1">
          <mxGeometry x="1595" y="1270" width="125" height="60" as="geometry" />
        </mxCell>
      </root>
    </mxGraphModel>
  </diagram>
</mxfile>
